<svg xmlns="http://www.w3.org/2000/svg" xmlns:xlink="http://www.w3.org/1999/xlink" version="1.1" x="0px" y="0px" viewBox="0 0 100 125" style="enable-background:new 0 0 100 100;" xml:space="preserve"><g><path d="M94.651,62.219c-0.553,0-1-0.447-1-1s0.447-1,1-1h0.718C92.052,55.035,61.353,7.048,61.353,7.048l17.647,85.194   c0,0,14.247-26.061,16.413-30.023H94.651z M86.651,62.219h-8c-0.553,0-1-0.447-1-1s0.447-1,1-1h8c0.553,0,1,0.447,1,1   S87.203,62.219,86.651,62.219z"/><path d="M70.651,62.219h-8c-0.553,0-1-0.447-1-1s0.447-1,1-1h7.674L59.32,7.097c0,0-50.515,49.027-54.734,53.122h2.065   c0.553,0,1,0.447,1,1s-0.447,1-1,1H4.788l72.316,30.733l-6.37-30.75C70.706,62.204,70.681,62.219,70.651,62.219z M22.651,62.219h-8   c-0.553,0-1-0.447-1-1s0.447-1,1-1h8c0.553,0,1,0.447,1,1S23.203,62.219,22.651,62.219z M38.651,62.219h-8c-0.553,0-1-0.447-1-1   s0.447-1,1-1h8c0.553,0,1,0.447,1,1S39.203,62.219,38.651,62.219z M54.651,62.219h-8c-0.553,0-1-0.447-1-1s0.447-1,1-1h8   c0.553,0,1,0.447,1,1S55.203,62.219,54.651,62.219z"/></g><text x="0" y="115" fill="#000000" font-size="5px" font-weight="bold" font-family="'Helvetica Neue', Helvetica, Arial-Unicode, Arial, Sans-serif">Created by Nikita Kozin</text><text x="0" y="120" fill="#000000" font-size="5px" font-weight="bold" font-family="'Helvetica Neue', Helvetica, Arial-Unicode, Arial, Sans-serif">from the Noun Project</text></svg>